<?xml version="1.0" encoding="UTF-8"?>
<!DOCTYPE svg PUBLIC "-//W3C//DTD SVG 1.1//EN" "http://www.w3.org/Graphics/SVG/1.1/DTD/svg11.dtd">
<!-- Creator: CorelDRAW 2021 (64-Bit) -->
<svg xmlns="http://www.w3.org/2000/svg" xml:space="preserve" width="130mm" height="130mm" version="1.1" style="shape-rendering:geometricPrecision; text-rendering:geometricPrecision; image-rendering:optimizeQuality; fill-rule:evenodd; clip-rule:evenodd"
viewBox="0 0 13000 13000"
 xmlns:xlink="http://www.w3.org/1999/xlink"
 xmlns:xodm="http://www.corel.com/coreldraw/odm/2003">
 <defs>
  <style type="text/css">
   <![CDATA[
    .fil1 {fill:#0072BC}
    .fil0 {fill:#060000}
    .fil2 {fill:#153352}
   ]]>
  </style>
 </defs>
 <g id="Plan_x0020_1">
  <metadata id="CorelCorpID_0Corel-Layer"/>
  <g id="_2716545212128">
   <path class="fil0" d="M710.65 6459.57c0,440.16 55.88,879.82 140.37,1307.42 58.18,294.41 146.06,571.14 247.82,844.39 65.01,174.59 135.49,343.14 218.69,509.44l121.63 242.44c225.17,387.52 442.4,737.35 751.14,1069.19l173.46 190.6c434.33,432.91 923.17,794.96 1471.09,1068.92 428.42,214.21 875.8,362.71 1349.51,470.82 102.5,23.39 197.32,40.94 305.11,58.96 672.27,112.39 1414.81,114.17 2089.21,30.58 246.75,-30.58 529.79,-67.68 770.71,-126.76 45.63,-11.18 32.97,-19.93 32.06,-78 -0.77,-49.77 7.42,-57.17 8.74,-101.33 6.1,-203.93 -23.78,-486.9 2.04,-675.29 17.6,-128.43 6.15,-299.22 6.15,-442.58 0,-158.56 8.47,-299.08 8.47,-448.74 -83.88,19.54 -165.48,42.35 -253.21,60.06l-547.37 96.09c-164.25,23.86 -335.2,38.65 -503.3,47.04 -37.2,1.85 -35.32,7.54 -75.91,8.76l-465.95 -0.28c-292.35,0.36 -722.61,-64.12 -987.2,-130.39 -371.8,-93.13 -717.49,-215.99 -1047.51,-400.3l-202.19 -119.54c-34.22,-23.11 -64.41,-39.38 -98.32,-62.54 -138.7,-94.77 -276.18,-198.87 -401.56,-309.65l-127.06 -118.46c-240.71,-240.78 -312.41,-336.8 -515.64,-610.43 -23.2,-31.23 -43.01,-62.03 -63.75,-97.12 -60.36,-102.16 -122.66,-193.78 -174.89,-299.25l-155.12 -327.47c-34.99,-78.31 -58.39,-151.63 -88.78,-232.96 -348.88,-933.76 -319.08,-2054.42 52.03,-2981.49 141.87,-354.41 334.7,-680.67 573.06,-976.33 67.34,-83.53 145.18,-157.15 211.84,-236.9l348.52 -320.35c227.23,-181 545.69,-392.99 823.56,-505.7l319.32 -129.41c224.03,-83.7 461.15,-138.91 695.5,-193.51l0 -1845.73c-122.76,0 -690.24,158.81 -809.72,197.82 -487.57,159.22 -961.98,349.6 -1401.77,613.3l-311.58 196.41c-34.7,23.12 -64.47,45.94 -99.83,69.51l-285.98 213.55c-34.81,27.35 -58.55,49.03 -93.22,76.12 -20.05,15.67 -26.51,25.37 -44.66,40l-134.42 119.58c-19.82,19.09 -27.25,20.89 -46.68,37.99 -152.38,134.19 -312.86,321.24 -448.86,474 -54.8,61.56 -99.7,122.72 -152.18,186.49 -96.59,117.38 -203.9,268.07 -280.14,397.19 -178.11,301.68 -325.17,545.7 -460.53,885.68l-136.83 362.7c-205.88,620.39 -305.87,1203.43 -305.87,1895.46z"/>
   <path class="fil1" d="M11471.78 8186.77c-171.41,0 -553.15,-122.32 -748.59,-165.81 -97.82,-21.76 -167.63,-28.93 -284.34,-28.93 7.64,91.89 121.65,244.6 181.23,335.23 190.77,290.16 181.76,630.13 -77.56,860.64 -43.11,38.32 -85.49,60.63 -140.34,88.26 -224.88,113.26 -519.45,94.54 -713.61,-34.32 -183.04,-121.47 -288.59,-364.54 -190.75,-632.97 35.56,-97.57 107.47,-205.78 168.6,-280.13 35.87,-43.65 68.96,-81.54 102.4,-126.2 26.57,-35.49 77.36,-94.56 77.36,-151.24 0,-60.56 -697.84,-50.8 -795.87,-50.8 -422.76,0 -897.74,211.67 -1227.66,211.67 -44.37,0 -116.72,-14.01 -164.58,-21.69 -247.57,-39.71 -1000.76,-158.06 -1198.47,-156.2 -72.35,0.68 -108.57,-9.99 -178.17,-8.77l-182.61 12.23c-384.71,55.97 -447.47,182.89 -1010.9,182.89 -238.85,0 -599.51,-115.54 -973.63,-135.5l-601.51 -25.7c-90.92,1.15 -178.77,21.62 -228.26,25.74 6.46,77.66 57.76,181.13 90.41,239.78 79,141.9 132.41,189 215.63,292.37 29.56,36.72 52.75,54.7 80.93,88.41 104.34,124.83 199.35,190.78 300.9,291.76l136.97 117.04c34.87,27.57 59.41,47.49 94.36,74.96 129.81,102.02 256.35,193.01 393.13,284.21 134.38,89.6 274.72,175.47 426.15,251.18 78.76,39.37 145.59,74.22 230.57,108.1 90.77,36.19 156.96,56.61 257.58,81.09 917.47,223.12 1662.54,173.36 2582.43,16.83 139.01,-23.66 405.12,-42.33 541.87,-42.33 392.07,0 351.17,835.24 347.47,1134.87 -0.62,49.92 -9.43,69.39 -8.89,126.57 1.38,147.21 -17.59,229.17 -16.79,381.14 0.28,53.24 -9.78,87.91 -8.84,126.71l9.82 126.2c4.53,46.49 14.7,68.38 32.83,102.64 46.5,-10.83 242.13,-120.71 299.26,-149.47l423.9 -253.44c244.21,-159.83 362.78,-259.29 584.4,-431.59l243.94 -213.26c25.71,-26.1 35.62,-32.4 63.13,-55.4 72.36,-60.49 155.36,-154.6 224.75,-223.99l163.64 -175.02c22.05,-28.55 35.76,-38.09 55.63,-62.91 196.8,-245.69 288.7,-338.78 488.13,-637.94l176.82 -280.38c15.87,-26.49 24.16,-42.99 40.14,-69.93 71.99,-121.38 130.69,-247.97 193.93,-373.33 27.85,-55.2 46.08,-99.34 71.05,-157.55 63.44,-147.94 139.4,-342.26 181.99,-495.34l70.91 -267.9c17.61,-75.06 23.42,-81.08 -38.89,-81.08 -96.33,0 -283.57,75.37 -379.78,111.29 -72.95,27.23 -303.26,117.31 -382.22,117.31z"/>
   <path class="fil0" d="M6806.65 5003.3c0,67.79 -63.42,73.79 -119.51,83.69 -204.4,36.07 -398.55,10.28 -600.39,-7.25 -47.13,-4.1 -345.04,-33.55 -363.83,-42.57l0 1456.26c172.82,-3.85 468.83,-228.6 745.06,-228.6 290.04,0 505.07,226.17 858.61,326.73 410.85,116.85 864.27,52.25 1203.68,-194.83 302.79,-220.42 504.46,-311.09 748.75,54.27 69.06,103.28 124.07,284.64 261.94,322.26 107.79,29.41 237.92,8.04 364.49,8.04 202.45,0 384.41,16.93 584.2,16.93 99.67,0 186.39,-20.47 245.53,-25.4 2.86,-34.33 8.47,-21.07 8.47,-76.2 0,-218.33 -114.04,-552.87 -208.72,-739.54 -38.6,-76.1 -81.9,-129.78 -129.88,-191.86 -64.4,-83.34 -159.81,-168.35 -243.19,-230.94 -172.8,-129.72 -310.41,-196.73 -522.5,-281.83 -156.37,-62.75 -315.19,-104.48 -487.45,-147.56 -166.64,-41.67 -347.73,-93.65 -526.2,-117.27 -53.18,-7.03 -50.47,-11.77 -49.65,-102.74 3.36,-375.69 -8.35,-751.07 -8.35,-1117.72l-1761.06 0 0 1236.13z"/>
   <path class="fil0" d="M3030.52 5113.37l-94.91 319.96c-46.76,183.87 -118.22,499.61 -133.06,696.67 -9.12,121.12 -38.47,278.29 26.66,353.07 51.84,59.53 265.82,51.6 364.49,38.08 71.15,-9.76 869.99,-2.36 1039.08,-2.32 79.74,0.02 131.27,-8.46 203.2,-8.46l0 -1456.27 -1405.46 59.27z"/>
   <path class="fil0" d="M6129.32 2361.7l8.46 93.14c38.36,3.19 58.45,8.99 110.07,8.46 54.13,-0.55 76.21,6.23 118.49,8.51 163.88,8.85 330.2,-8.52 482.64,-8.51l440.27 0c25.07,0 88.77,129.78 105.26,157.2 33.24,55.26 72.54,106.01 72.54,189.94l0 330.2 457.2 0c41.1,0 25.4,-61.61 25.4,-169.34 0,-120.7 -21.76,-177.97 43.95,-286.25l133.85 -213.28 1024.46 -8.47c45.15,0 40.93,13.21 91.55,-1.19 108.69,-30.93 0,-322.01 -68.11,-394.77 -76.93,-82.19 -166.53,-126.66 -303.21,-145.53 -93.23,-12.87 -324.66,-19.45 -430.19,-7.6 -153.58,17.24 -1195.52,7.23 -1398.24,7.23 -213.26,0 -469.55,-29.69 -639.75,29.11 -137.55,47.51 -274.64,229.7 -274.64,411.15z"/>
   <path class="fil0" d="M4605.32 5214.97l0 1134.53c0,141.55 39.35,239.38 128.94,328.26 181,179.57 596.91,170.21 744.58,-13.53 76.16,-94.77 117.08,-196.74 117.08,-365.53l0 -1041.4c0,-601.52 -661.23,-571.42 -857.39,-374.78 -87.22,87.43 -133.21,197.05 -133.21,332.45z"/>
   <path class="fil0" d="M9092.65 7314.7c0,256.59 98.07,372.53 364.06,372.53l1202.27 0c180.99,0 293.94,-15.7 368.32,-165.08 79.08,-158.83 34.5,-390.11 -108.31,-467.45 -95.65,-51.8 -244.27,-36.33 -387.01,-36.33l-940 -8.67c-51.87,-0.21 -65.47,7.63 -109.59,8.94 -90.6,2.71 -136.29,-8.74 -208.74,19.87 -90.19,35.61 -181,155.52 -181,276.19z"/>
   <path class="fil0" d="M8576.18 3479.3c0,-266.68 -118.38,-238.21 -338.78,-236.95 -54.41,0.31 -73.12,-7.51 -118.14,-8.86l-398.55 -0.06c-48.9,0.61 -63.81,9.23 -118,9 -190.08,-0.77 -326.54,-1.9 -516.62,8.31 -98.85,5.31 -219.74,-36.61 -233.32,172.24 -5.23,80.33 22.68,144.07 70,185.73 51.13,45.04 139.55,31.46 231.01,31.46 87.49,0 174.98,0 262.47,0 42.24,0 85.22,0.86 127.34,0.34 49.7,-0.62 69.55,-9.25 126.55,-8.92l788.11 0.71c54.26,0.01 64.87,-10 89.3,-46.16 18.1,-26.8 28.63,-65.07 28.63,-106.84z"/>
   <path class="fil0" d="M7255.38 1887.57l872.07 0c0,-158.9 7.59,-367.47 -79.87,-462 -67.52,-72.98 -263.76,-93.74 -386.7,-81.44 -108.48,10.85 -289.31,-11 -363.09,120.18 -62.39,110.92 -32.34,220.71 -46.18,309.82 -8.4,54.04 3.77,60.37 3.77,113.44z"/>
   <path class="fil2" d="M9778.45 8813.3c0,446.45 601.13,328.49 601.13,42.33 0,-164.81 -37.53,-236.11 -121.23,-386.77 -48.43,-87.18 -107.92,-203.72 -192.04,-248.23 -62.56,41.9 -180.89,258.82 -212.85,337.48 -29.95,73.71 -75.01,152.59 -75.01,255.19z"/>
  </g>
 </g>
</svg>
